<?xml version="1.0" standalone="no"?>
<!DOCTYPE svg PUBLIC "-//W3C//DTD SVG 20010904//EN"
 "http://www.w3.org/TR/2001/REC-SVG-20010904/DTD/svg10.dtd">
<svg version="1.0" xmlns="http://www.w3.org/2000/svg"
 width="1235.000000pt" height="1280.000000pt" viewBox="0 0 1235.000000 1280.000000"
 preserveAspectRatio="xMidYMid meet">
<metadata>
Created by potrace 1.15, written by Peter Selinger 2001-2017
</metadata>
<g transform="translate(0.000000,1280.000000) scale(0.100000,-0.100000)"
fill="#000000" stroke="none">
<path d="M6985 12744 c-1001 -168 -1259 -214 -1271 -227 -12 -12 17 -36 107
-92 100 -62 602 -342 693 -387 l61 -29 410 81 c403 80 1030 212 1173 246 40
10 71 22 69 28 -2 5 -54 36 -116 69 -151 80 -772 367 -791 366 -8 -1 -159 -25
-335 -55z"/>
<path d="M5260 12459 c-25 -5 -425 -72 -890 -149 -1065 -175 -1703 -288 -1733
-307 -5 -3 13 -19 39 -36 76 -47 633 -365 817 -466 l165 -91 518 105 c1187
238 2028 415 2062 434 24 13 -165 127 -644 389 -139 77 -250 132 -265 131 -13
-1 -44 -5 -69 -10z"/>
<path d="M8235 12164 c-170 -35 -485 -100 -700 -144 -494 -102 -665 -141 -665
-151 0 -10 127 -88 350 -217 268 -154 1011 -562 1024 -562 20 -1 1806 444
1806 450 0 3 -107 54 -238 114 -130 60 -464 214 -741 343 -277 128 -508 233
-515 232 -6 0 -150 -30 -321 -65z"/>
<path d="M2230 11959 c-25 -5 -398 -67 -830 -139 -850 -141 -1038 -174 -1053
-189 -14 -14 920 -634 1009 -670 37 -14 27 -16 514 80 651 129 1433 294 1459
309 16 9 -52 55 -264 182 -199 119 -768 438 -779 437 -6 -1 -31 -5 -56 -10z"/>
<path d="M6385 11784 c-88 -18 -392 -80 -675 -138 -1119 -228 -1748 -360
-1757 -370 -9 -8 90 -78 227 -161 244 -148 1095 -629 1211 -685 l46 -23 159
37 c240 56 940 226 1389 337 725 180 935 234 935 241 0 25 -344 226 -1065 623
-137 76 -263 145 -280 155 -29 17 -35 16 -190 -16z"/>
<path d="M4 11219 c39 -1233 64 -1869 82 -2069 8 -96 30 -162 62 -186 116 -90
609 -440 868 -617 136 -92 173 -114 178 -101 15 39 -3 2133 -20 2331 l-6 73
-101 73 c-217 157 -887 605 -1021 682 l-48 28 6 -214z"/>
<path d="M10215 11388 c-44 -11 -368 -91 -720 -178 -570 -141 -922 -236 -963
-259 -19 -11 141 -103 1094 -628 l380 -210 665 148 c1136 254 1409 319 1409
335 0 9 -327 164 -845 402 -264 121 -574 263 -688 316 -114 53 -218 96 -230
95 -12 0 -58 -10 -102 -21z"/>
<path d="M3220 11135 c-168 -35 -593 -123 -945 -195 -352 -72 -646 -133 -654
-136 -16 -5 35 -46 224 -179 233 -164 1193 -805 1205 -805 6 0 183 42 393 94
210 51 524 128 697 171 901 220 990 244 990 265 0 19 -1058 619 -1355 768
-117 59 -161 76 -200 78 -32 2 -158 -20 -355 -61z"/>
<path d="M7850 10808 c-843 -207 -2012 -499 -2078 -519 l-72 -22 32 -22 c137
-93 1349 -778 1373 -777 34 2 2088 463 2445 548 l154 37 -27 21 c-78 62 -1445
816 -1477 815 -14 -1 -171 -37 -350 -81z"/>
<path d="M1360 10178 c0 -338 10 -978 26 -1765 l7 -332 506 -354 c493 -346
740 -517 745 -517 2 0 6 195 10 433 4 237 13 790 21 1227 7 437 10 798 7 802
-10 9 -1313 868 -1318 868 -2 0 -4 -163 -4 -362z"/>
<path d="M12265 10353 c-491 -103 -2159 -484 -2172 -496 -10 -10 -118 -1389
-163 -2077 -5 -85 -12 -182 -14 -215 -7 -87 3 -145 23 -145 34 0 1868 466
2035 517 51 16 61 23 68 48 22 85 226 1629 288 2185 23 200 23 200 13 199 -5
-1 -39 -8 -78 -16z"/>
<path d="M5275 10178 c-66 -16 -462 -115 -880 -219 -857 -213 -1105 -278
-1105 -290 0 -5 48 -43 108 -85 136 -97 905 -608 994 -661 l68 -41 182 39
c241 50 1066 234 1593 354 565 129 565 129 565 135 0 3 -12 12 -28 21 -455
265 -1363 779 -1371 778 -3 -1 -60 -14 -126 -31z"/>
<path d="M9650 9754 c-91 -18 -237 -49 -325 -69 -88 -19 -304 -66 -480 -104
-615 -135 -1495 -337 -1571 -362 -30 -9 -32 -12 -38 -82 -8 -95 -32 -654 -51
-1212 -8 -247 -20 -547 -25 -665 -12 -261 -13 -537 -2 -544 4 -2 143 29 307
70 323 80 1073 271 1220 309 50 13 232 60 405 105 173 45 374 98 445 117 72
19 140 38 152 40 16 4 23 15 27 42 22 135 139 1762 162 2249 l7 142 -34 -1
c-19 0 -108 -16 -199 -35z"/>
<path d="M2845 8917 c-8 -683 -2 -1799 9 -1832 10 -28 246 -202 857 -630 436
-306 488 -340 501 -327 7 7 13 326 19 999 7 883 19 1387 35 1479 5 30 3 33
-33 44 -70 24 -291 167 -963 626 -185 126 -354 241 -377 256 l-41 27 -7 -642z"/>
<path d="M6793 9115 c-148 -31 -591 -131 -918 -206 -409 -94 -1195 -288 -1315
-323 -79 -24 -83 -28 -92 -98 -22 -166 -19 -2431 3 -2453 15 -14 2451 614
2476 639 14 14 33 407 63 1366 11 338 25 720 31 847 6 128 9 240 5 248 -8 23
-71 18 -253 -20z"/>
<path d="M110 8493 c0 -346 40 -1556 60 -1827 7 -98 14 -136 29 -160 37 -59
234 -241 631 -580 l395 -338 3 524 c3 483 -10 1393 -24 1738 l-6 146 -312 219
c-364 257 -746 515 -763 515 -10 0 -13 -54 -13 -237z"/>
<path d="M1401 7036 c8 -1062 22 -1560 45 -1619 3 -10 115 -111 248 -225 351
-303 915 -782 920 -782 2 0 4 53 5 118 0 64 3 185 6 267 14 375 25 1089 26
1610 l1 570 -209 148 c-488 346 -1026 717 -1041 717 -4 0 -4 -362 -1 -804z"/>
<path d="M11910 7722 c-36 -8 -420 -104 -855 -212 -837 -209 -1146 -289 -1157
-299 -9 -9 -70 -775 -158 -1983 -40 -561 -46 -673 -32 -682 6 -4 69 9 139 28
398 108 1537 423 1593 441 25 7 84 25 132 40 85 25 88 26 97 63 26 98 81 472
165 1122 130 999 187 1456 184 1474 -4 27 -26 28 -108 8z"/>
<path d="M9585 7139 c-38 -11 -302 -78 -585 -150 -283 -72 -573 -145 -645
-164 -71 -19 -238 -61 -370 -95 -372 -95 -693 -179 -767 -201 l-66 -19 -6 -58
c-16 -153 -71 -1690 -82 -2276 -7 -336 -6 -369 9 -363 9 3 35 11 59 17 24 6
157 43 296 81 1312 360 1884 519 2008 560 l61 20 7 62 c33 323 144 1753 176
2257 24 391 24 350 -2 349 -13 -1 -54 -10 -93 -20z"/>
<path d="M2827 6683 c-4 -87 -7 -676 -7 -1308 l0 -1151 670 -567 c583 -493
670 -564 674 -544 16 76 28 707 32 1672 l5 1110 -53 36 c-29 19 -250 173 -490
342 -442 310 -815 567 -821 567 -2 0 -7 -71 -10 -157z"/>
<path d="M6880 6438 c-326 -70 -2395 -591 -2412 -607 -4 -3 -15 -434 -23 -956
-18 -1049 -17 -1747 1 -1765 9 -9 100 12 360 83 192 53 680 186 1084 297 404
111 787 215 850 232 63 17 116 32 118 33 10 8 42 749 62 1415 13 439 30 1133
30 1218 0 68 3 66 -70 50z"/>
<path d="M190 6068 c0 -68 4 -240 10 -383 5 -143 19 -532 31 -865 l22 -605 31
-38 c69 -83 962 -1055 970 -1056 9 -1 0 1733 -10 2042 l-6 177 -324 275 c-418
356 -692 575 -718 575 -3 0 -6 -55 -6 -122z"/>
<path d="M1444 5113 c-7 -51 2 -1705 12 -2021 l7 -203 561 -611 561 -612 7
105 c14 213 27 867 33 1614 l6 770 -590 502 -590 502 -7 -46z"/>
<path d="M11485 4825 c-137 -29 -569 -144 -1225 -327 -278 -77 -521 -145 -542
-150 -44 -12 -34 67 -93 -733 -25 -335 -57 -756 -70 -935 -46 -592 -50 -649
-39 -660 10 -10 111 28 1059 387 520 196 756 289 778 305 22 17 39 117 121
719 110 796 181 1390 169 1412 -6 11 -39 8 -158 -18z"/>
<path d="M9305 4234 c-1020 -271 -2230 -607 -2248 -624 -11 -10 -23 -268 -47
-1020 -27 -859 -39 -1187 -45 -1240 -6 -60 -8 -280 -2 -286 6 -6 449 157 1532
563 l820 308 7 43 c22 129 120 1518 154 2160 l7 132 -24 -1 c-13 0 -82 -16
-154 -35z"/>
<path d="M2806 3908 c-3 -40 -9 -611 -12 -1268 l-6 -1195 352 -385 c767 -836
975 -1058 984 -1049 15 14 39 1071 52 2249 l6 575 -283 240 c-935 793 -1068
905 -1082 905 -2 0 -7 -33 -11 -72z"/>
<path d="M6500 3465 c-655 -174 -2033 -554 -2042 -563 -23 -23 -28 -172 -34
-922 -6 -800 7 -1846 23 -1860 4 -4 442 156 973 355 531 199 1055 395 1165
436 l200 75 7 299 c4 165 14 509 22 765 9 256 20 614 26 795 5 182 12 414 16
518 l6 187 -24 -1 c-12 0 -165 -38 -338 -84z"/>
</g>
</svg>
